<?xml version="1.0" encoding="UTF-8" standalone="no"?>
<svg xmlns="http://www.w3.org/2000/svg" xmlns:xlink="http://www.w3.org/1999/xlink" viewBox="384 -88.5 1024 1024" preserveAspectRatio="xMidYMid meet">
<desc>Created with Fabric.js 4.6.0</desc>
<defs>
</defs>
<g transform="matrix(0.5 0 0 0.5 1097.67 123.18)">
<path style="stroke: none; stroke-width: 1; stroke-dasharray: none; stroke-linecap: butt; stroke-dashoffset: 0; stroke-linejoin: miter; stroke-miterlimit: 4; fill: rgb(17,189,249); fill-rule: nonzero; opacity: 1;" transform=" translate(-1422.37, -525.61)" d="M 1420.82 423.149 C 1477.49 422.293 1524.09 467.598 1524.84 524.268 C 1525.58 580.938 1480.18 627.447 1423.5 628.073 C 1367 628.698 1320.65 583.456 1319.91 526.949 C 1319.17 470.442 1364.32 424.004 1420.82 423.149 z M 1423.49 583.365 C 1455.36 582.77 1480.73 556.504 1480.23 524.637 C 1479.73 492.77 1453.54 467.317 1421.67 467.725 C 1389.67 468.135 1364.09 494.458 1364.59 526.458 C 1365.1 558.457 1391.49 583.962 1423.49 583.365 z" stroke-linecap="round"></path>
</g>
<g transform="matrix(0.5 0 0 0.5 1206.51 105.55)">
<path style="stroke: none; stroke-width: 1; stroke-dasharray: none; stroke-linecap: butt; stroke-dashoffset: 0; stroke-linejoin: miter; stroke-miterlimit: 4; fill: rgb(226,232,240); fill-rule: nonzero; opacity: 1;" transform=" translate(-1640.12, -490.36)" d="M 1750.68 358.711 C 1754.48 358.985 1756.06 358.396 1758.54 360.301 L 1758.57 360.995 C 1755.33 369.241 1751.87 371.772 1749.47 376.831 L 1675.37 483.573 C 1672.95 486.748 1670.93 488.589 1670.59 492.49 C 1671.81 495.111 1671.21 494.631 1673.14 496.459 C 1699.51 535.328 1726.24 573.954 1753.32 612.332 L 1759.49 621.742 C 1750.65 621.985 1741.81 622.066 1732.97 621.985 L 1707.2 621.982 C 1690.29 599.669 1675.94 577.091 1660.14 554.092 C 1652.56 543.318 1644.99 533.544 1639.28 521.668 C 1632.02 533.054 1624.55 544.309 1616.89 555.429 C 1601.9 576.425 1586.42 600.218 1572.27 621.939 L 1520.74 622.018 C 1523.01 614.155 1549.56 578.541 1556.58 567.341 C 1573.8 543.181 1591.82 513.721 1609.93 490.833 C 1591.41 461.737 1571.24 433.689 1552.44 404.776 C 1548.9 399.338 1545.39 393.873 1541.41 388.74 C 1538.88 381.856 1524.29 367.973 1524.47 360.384 L 1526.73 359.35 C 1542.01 359.679 1557.3 359.534 1572.57 358.917 C 1577.85 364.622 1586.01 378.285 1590.55 385.241 C 1599.07 398.115 1607.66 410.939 1616.33 423.712 C 1617.23 425.044 1624.27 435.582 1625.04 436.208 C 1630.1 444.288 1635.63 451.898 1640.59 459.88 C 1644.9 453.663 1648.8 447.528 1652.85 441.144 C 1660.77 428.028 1673.84 410.477 1682.61 397.402 C 1688.93 387.977 1702.26 367.903 1709.18 359.795 C 1717.23 359.654 1744.57 359.812 1750.68 358.711 z" stroke-linecap="round"></path>
</g>
<g transform="matrix(0.5 0 0 0.5 1206.51 105.55)">
<linearGradient id="SVGID_SVGID_3844_1" gradientUnits="userSpaceOnUse" gradientTransform="matrix(1 0 0 1 1520.74 358.71)" x1="0" y1="131.6535" x2="238.75" y2="131.6535">
<stop offset="0%" style="stop-color:rgb(2,0,36);stop-opacity: 1"></stop>
<stop offset="35%" style="stop-color:rgb(9,9,121);stop-opacity: 1"></stop>
<stop offset="100%" style="stop-color:rgb(0,212,255);stop-opacity: 1"></stop>
</linearGradient>
<path style="stroke: none; stroke-width: 1; stroke-dasharray: none; stroke-linecap: butt; stroke-dashoffset: 0; stroke-linejoin: miter; stroke-miterlimit: 4; fill: url(#SVGID_SVGID_3844_1); fill-rule: nonzero; opacity: 1;" transform=" translate(-1640.12, -490.36)" d="M 1750.68 358.711 C 1754.48 358.985 1756.06 358.396 1758.54 360.301 L 1758.57 360.995 C 1742.2 361.003 1725.82 361.219 1709.45 361.643 C 1702.71 370.549 1696.07 381.322 1689.63 390.644 C 1672.92 414.42 1656.57 438.453 1640.6 462.734 C 1627.42 442.478 1613.26 422.156 1599.72 402.063 C 1591.05 389.188 1581.08 373.407 1572 361.131 C 1556.29 361.463 1540.57 361.609 1524.85 361.57 C 1543.55 384.461 1558.34 412.373 1575.79 436.338 C 1588.5 453.809 1599.54 472.76 1611.99 490.304 C 1583.84 527.782 1559.64 568.734 1531.69 606.391 C 1528.77 610.327 1524.39 615.333 1522.94 619.883 C 1539.02 620.074 1555.1 620.06 1571.18 619.843 C 1593.42 586.036 1616.62 553.157 1638.82 519.444 C 1662.51 552.015 1683.38 586.795 1707.99 619.961 C 1723.88 620.304 1740.92 619.951 1756.9 619.904 C 1750.29 611.739 1744.03 602.139 1738.04 593.432 C 1714.73 559.544 1690.1 526.046 1667.83 491.488 C 1670.52 486.484 1678.15 476.282 1681.65 471.313 L 1705.56 437.085 L 1737.92 390.265 C 1743.59 382.006 1752.38 368.333 1758.57 360.995 C 1755.33 369.241 1751.87 371.772 1749.47 376.831 L 1675.37 483.573 C 1672.95 486.748 1670.93 488.589 1670.59 492.49 C 1671.81 495.111 1671.21 494.631 1673.14 496.459 C 1699.51 535.328 1726.24 573.954 1753.32 612.332 L 1759.49 621.742 C 1750.65 621.985 1741.81 622.066 1732.97 621.985 L 1707.2 621.982 C 1690.29 599.669 1675.94 577.091 1660.14 554.092 C 1652.56 543.318 1644.99 533.544 1639.28 521.668 C 1632.02 533.054 1624.55 544.309 1616.89 555.429 C 1601.9 576.425 1586.42 600.218 1572.27 621.939 L 1520.74 622.018 C 1523.01 614.155 1549.56 578.541 1556.58 567.341 C 1573.8 543.181 1591.82 513.721 1609.93 490.833 C 1591.41 461.737 1571.24 433.689 1552.44 404.776 C 1548.9 399.338 1545.39 393.873 1541.41 388.74 C 1538.88 381.856 1524.29 367.973 1524.47 360.384 L 1526.73 359.35 C 1542.01 359.679 1557.3 359.534 1572.57 358.917 C 1577.85 364.622 1586.01 378.285 1590.55 385.241 C 1599.07 398.115 1607.66 410.939 1616.33 423.712 C 1617.23 425.044 1624.27 435.582 1625.04 436.208 C 1630.1 444.288 1635.63 451.898 1640.59 459.88 C 1644.9 453.663 1648.8 447.528 1652.85 441.144 C 1660.77 428.028 1673.84 410.477 1682.61 397.402 C 1688.93 387.977 1702.26 367.903 1709.18 359.795 C 1717.23 359.654 1744.57 359.812 1750.68 358.711 z" stroke-linecap="round"></path>
</g>
<g transform="matrix(0.5 0 0 0.5 992.44 105.59)">
<linearGradient id="SVGID_SVGID_3845_2" gradientUnits="userSpaceOnUse" gradientTransform="matrix(1 0 0 1 1091.34 360.54)" x1="0" y1="129.9016162769858" x2="241.26" y2="129.9016162769858">
<stop offset="35%" style="stop-color:rgb(9,9,121);stop-opacity: 1"></stop>
<stop offset="100%" style="stop-color:rgb(0,212,255);stop-opacity: 1"></stop>
</linearGradient>
<path style="stroke: none; stroke-width: 1; stroke-dasharray: none; stroke-linecap: butt; stroke-dashoffset: 0; stroke-linejoin: miter; stroke-miterlimit: 4; fill: url(#SVGID_SVGID_3845_2); fill-rule: nonzero; opacity: 1;" transform=" translate(-1211.97, -490.44)" d="M 1284.38 360.543 C 1300.34 361.198 1316.6 360.896 1332.6 360.77 C 1330.01 370.661 1320.9 393.367 1317.07 403.798 C 1307.42 425.632 1294.96 462.819 1286.55 485.771 L 1237.3 620.204 C 1219.92 620.377 1202.55 620.392 1185.18 620.25 C 1178.84 594.463 1162.44 556.789 1153.44 530.981 C 1140.34 493.389 1125.47 455.456 1112.62 417.673 C 1109.17 407.516 1092.33 369.387 1091.34 361.307 C 1103.36 360.103 1128.9 360.841 1141.5 361.227 C 1145.11 370.727 1148.39 380.373 1151.54 390.032 C 1170.34 447.528 1193.42 504.195 1212.04 561.679 L 1284.38 360.543 z" stroke-linecap="round"></path>
</g>
<g transform="matrix(0.5 0 0 0.5 889.81 140.9)">
<path style="stroke: none; stroke-width: 1; stroke-dasharray: none; stroke-linecap: butt; stroke-dashoffset: 0; stroke-linejoin: round; stroke-miterlimit: 4; fill: rgb(9,9,121); fill-rule: nonzero; opacity: 1;" transform=" translate(-1006.67, -561.11)" d="M 912.717 429.825 L 960.581 429.803 C 974.025 468.609 989.849 507.009 1004.32 545.456 C 1006.14 550.286 1007.01 554.889 1009.51 559.445 C 1012.4 555.75 1019.29 535.267 1021.47 529.451 C 1034.08 496.401 1046.18 463.161 1057.78 429.742 L 1100.63 429.761 C 1088.97 465.826 1069.7 513.374 1056.1 548.896 L 1003.29 692.355 C 988.696 692.021 973.427 692.356 958.779 692.478 C 961.086 682.7 967.088 668.656 970.905 658.99 C 976.8 644.161 982.472 629.244 987.917 614.243 C 981.307 595.58 973.11 577.218 965.676 558.866 C 955.95 534.285 946.051 509.774 935.979 485.333 C 928.477 467.508 919.163 447.821 912.717 429.825 z" stroke-linecap="round"></path>
</g>
<g transform="matrix(0.5 0 0 0.5 813.89 105.8)">
<path style="stroke: none; stroke-width: 1; stroke-dasharray: none; stroke-linecap: butt; stroke-dashoffset: 0; stroke-linejoin: round; stroke-miterlimit: 4; fill: rgb(9,9,121); fill-rule: nonzero; opacity: 1;" transform=" translate(-854.88, -490.86)" d="M 785.877 361.998 L 827.898 361.682 L 827.892 580.206 L 923.877 580.218 L 923.863 619.762 C 909.762 620.349 891.495 619.846 876.967 619.854 L 786.042 619.895 L 785.877 361.998 z" stroke-linecap="round"></path>
</g>
<g transform="matrix(0.5 0 0 0.5 666.55 109.04)">
<linearGradient id="SVGID_SVGID_3847_3" gradientUnits="userSpaceOnUse" gradientTransform="matrix(1 0 0 1 277.54 338.18)" x1="98.32904143620159" y1="22.283332748195285" x2="294.9871243086048" y2="296.04999222602305">
<stop offset="0%" style="stop-color:rgb(163,230,53);stop-opacity: 1"></stop>
<stop offset="76%" style="stop-color:rgb(17,189,249);stop-opacity: 1"></stop>
</linearGradient>
<path style="stroke: none; stroke-width: 1; stroke-dasharray: none; stroke-linecap: butt; stroke-dashoffset: 0; stroke-linejoin: miter; stroke-miterlimit: 4; fill: url(#SVGID_SVGID_3847_3); fill-rule: nonzero; opacity: 1;" transform=" translate(-474.2, -497.34)" d="M 587.177 557.914 C 584.584 561.243 580.13 570.893 577.727 575.153 C 565.607 596.641 555.971 626.418 536.837 642.293 C 522.619 654.089 504.386 657.953 486.475 656.049 C 479.065 655.26 462.166 651.313 456.537 646.832 C 428.241 624.305 402.185 591.199 377.49 564.616 C 351.456 536.257 325.155 507.906 300.533 478.361 C 268.848 440.341 268.384 389.735 308.692 357.707 C 334.045 337.561 363.954 336.045 395.069 339.81 C 428.918 343.906 449.115 358.496 469.281 385.096 C 476.604 398.102 490.134 434.44 474.923 446.503 C 444.499 470.631 435.808 421.01 407.286 422.553 C 397.226 423.097 389.113 425.085 381.389 432.627 C 375.692 438.146 372.588 445.814 372.841 453.742 C 373.108 463.324 377.205 470.485 384.024 476.986 C 391.87 484.465 405.504 482.236 415.753 481.802 C 427.724 488.873 455.791 520.347 465.334 532.494 C 472.703 522.968 484.428 497.256 490.727 485.423 C 510.108 449.013 527.96 410.245 547.811 374.18 C 560.551 356.43 577.549 344.171 599.423 340.441 C 627.762 335.608 665.307 342.211 670.549 376.218 C 670.64 376.397 670.731 376.577 670.822 376.756 C 671.655 399.356 656.039 423.581 645.682 443.677 L 607.463 517.606 C 601.164 529.863 592.596 545.541 587.177 557.914 z" stroke-linecap="round"></path>
</g>
</svg>