<svg width="168" height="48" viewBox="0 0 168 48" fill="none" xmlns="http://www.w3.org/2000/svg">
  <defs>
    <linearGradient id="lyvox-wordmark-gradient" x1="0" y1="0" x2="168" y2="48" gradientUnits="userSpaceOnUse">
      <stop offset="0" stop-color="#00D4FF"/>
      <stop offset="0.48" stop-color="#2F7BFF"/>
      <stop offset="1" stop-color="#45F391"/>
    </linearGradient>
    <linearGradient id="lyvox-icon-gradient" x1="12" y1="8" x2="36" y2="40" gradientUnits="userSpaceOnUse">
      <stop offset="0" stop-color="#00D4FF"/>
      <stop offset="1" stop-color="#2F7BFF"/>
    </linearGradient>
  </defs>
  <rect width="168" height="48" rx="10" fill="transparent"/>
  <g aria-label="LyVoX" transform="translate(6 6)">
    <circle cx="18" cy="18" r="14" fill="url(#lyvox-icon-gradient)" opacity="0.22"/>
    <path d="M14.8 11.2H22C22.884 11.2 23.6 11.916 23.6 12.8C23.6 13.22 23.4408 13.6264 23.1548 13.9432L18.584 19C18.3477 19.2628 18.1957 19.6018 18.16 19.961V27.6C18.16 28.484 17.444 29.2 16.56 29.2C15.676 29.2 14.96 28.484 14.96 27.6V20.08C14.96 19.6428 15.1203 19.2204 15.412 18.892L20.148 13.336H14.8C13.916 13.336 13.2 12.62 13.2 11.736C13.2 10.852 13.916 10.136 14.8 10.136Z" fill="url(#lyvox-wordmark-gradient)"/>
    <text x="40" y="24" font-family="'Inter','Segoe UI','SF Pro Display',sans-serif" font-weight="700" font-size="22" letter-spacing="0.02em" fill="url(#lyvox-wordmark-gradient)">LyVoX</text>
  </g>
</svg>