<svg width="128" height="32" viewBox="0 0 128 32" fill="none" xmlns="http://www.w3.org/2000/svg">
  <defs>
    <linearGradient id="lyvox-wordmark-gradient" x1="0" y1="0" x2="128" y2="32" gradientUnits="userSpaceOnUse">
      <stop offset="0" stop-color="#00D4FF" />
      <stop offset="0.5" stop-color="#2F7BFF" />
      <stop offset="1" stop-color="#45F391" />
    </linearGradient>
    <linearGradient id="lyvox-icon-gradient" x1="8" y1="4" x2="24" y2="28" gradientUnits="userSpaceOnUse">
      <stop offset="0" stop-color="#00D4FF" />
      <stop offset="1" stop-color="#2F7BFF" />
    </linearGradient>
  </defs>
  <rect width="128" height="32" rx="8" fill="transparent" />
  <g aria-label="LyVoX">
    <circle cx="16" cy="16" r="10" fill="url(#lyvox-icon-gradient)" opacity="0.16" />
    <path d="M13.2 9.6H18.8C19.4632 9.6 19.9973 10.1341 19.9973 10.7973C19.9973 11.101 19.8886 11.3956 19.6912 11.6222L16.1368 15.6569C15.9535 15.8641 15.848 16.1301 15.84 16.408V21.2C15.84 21.8632 15.3059 22.3973 14.6427 22.3973C13.9795 22.3973 13.4453 21.8632 13.4453 21.2V16.48C13.4453 16.1058 13.5778 15.7432 13.816 15.456L17.072 11.552H13.2C12.5368 11.552 12.0027 11.0179 12.0027 10.3547C12.0027 9.69149 12.5368 9.15733 13.2 9.15733Z" fill="url(#lyvox-wordmark-gradient)"/>
    <text x="32" y="21" font-family="'Inter', 'Segoe UI', 'SF Pro Display', sans-serif" font-weight="600" font-size="18" fill="url(#lyvox-wordmark-gradient)">LyVoX</text>
  </g>
</svg>