<?xml version="1.0" encoding="UTF-8" standalone="no" ?>
<!DOCTYPE svg PUBLIC "-//W3C//DTD SVG 1.1//EN" "http://www.w3.org/Graphics/SVG/1.1/DTD/svg11.dtd">
<svg xmlns="http://www.w3.org/2000/svg" xmlns:xlink="http://www.w3.org/1999/xlink" version="1.1" width="1024" height="1024" viewBox="384 -88.5 1024 1024" xml:space="preserve">
<desc>Lyvox NoPhoto placeholder</desc>
<defs>
</defs>
<g transform="matrix(0.5 0 0 0.5 896.25 423.75)"  >
<path style="stroke: none; stroke-width: 1; stroke-dasharray: none; stroke-linecap: butt; stroke-dashoffset: 0; stroke-linejoin: miter; stroke-miterlimit: 4; fill: rgb(0,255,255); fill-rule: nonzero; opacity: 1;"  transform=" translate(-1024, -1024)" d="M 0 0 L 2048 0 L 2048 2048 L 0 2048 L 0 0 z" stroke-linecap="round" />
</g>
<g transform="matrix(0.94 0 0 0.94 878.41 191.76)"  >
<linearGradient id="SVGID_11" gradientUnits="userSpaceOnUse" gradientTransform="matrix(1 0 0 1 0 0)"  x1="870.994" y1="545.478" x2="1164.98" y2="827.383">
<stop offset="0%" style="stop-color:rgb(107,233,117);stop-opacity: 1"/>
<stop offset="100%" style="stop-color:rgb(17,192,237);stop-opacity: 1"/>
</linearGradient>
<path style="stroke: none; stroke-width: 1; stroke-dasharray: none; stroke-linecap: butt; stroke-dashoffset: 0; stroke-linejoin: miter; stroke-miterlimit: 4; fill: url(#SVGID_11); fill-rule: nonzero; opacity: 1;"  transform=" translate(-1000.52, -782.47)" d="M 953.746 699.813 C 949.744 697.136 940.76 687.82 937.452 683.206 C 910.846 646.102 855.286 671.28 859.439 713.392 C 860.51 724.252 871.372 738.731 880.401 744.873 C 896.435 757.169 921.269 748.357 934.908 759.275 C 948.201 769.915 989.183 825.122 1002.59 829.697 C 1006.39 828.282 1009.42 820.363 1011.18 816.517 L 1085.91 652.284 C 1098.5 624.687 1113.09 585.877 1130.83 561.86 C 1170.21 508.541 1297.32 519.216 1276.57 607.694 C 1270.83 632.188 1255.27 656.773 1245.85 680.151 C 1229.52 712.519 1215.74 751.753 1198.47 783.121 C 1187.01 812.486 1166.09 853.999 1152.52 883.94 L 1124.52 944.892 C 1110.18 976.683 1097.2 1013.87 1062.64 1028.92 C 1036.09 1040.48 995.822 1036.97 974.374 1016.31 C 952.715 1004.06 854.42 868.566 831.239 843.827 C 805.505 816.363 740.722 730.455 729.679 695.653 C 723.327 683.271 720.978 655.309 722.792 641.636 C 732.969 564.944 805.953 523.391 878.052 531.305 C 937.965 532.645 990.646 597.286 1011.22 647.991 C 1033.31 702.43 991.991 701.921 953.746 699.813 z" stroke-linecap="round" />
</g>
<g transform="matrix(0.94 0 0 0.94 957.83 307.49)"  >
<path style="stroke: none; stroke-width: 1; stroke-dasharray: none; stroke-linecap: butt; stroke-dashoffset: 0; stroke-linejoin: miter; stroke-miterlimit: 4; fill: rgb(10,189,238); fill-rule: nonzero; opacity: 1;"  transform=" translate(-1085.37, -906.12)" d="M 974.374 1016.31 L 975.499 1015.03 C 972.091 1012.35 972.919 1013.93 971.695 1010.62 L 973.218 1008.6 C 991.705 1014.42 997.639 992.7 1006.51 988.515 C 1007.99 990.916 1006.97 990.286 1009.17 991.106 L 1011.34 989.072 C 1011.41 988.259 1011.92 983.473 1012.27 983.105 C 1021.25 973.889 1028.96 963.605 1036.81 953.417 L 1038.47 954.564 C 1052.34 938.891 1066.87 925.718 1081.02 910.593 C 1099.31 891.045 1116.33 869.557 1134.47 849.828 C 1139.37 844.493 1146.7 840.429 1151.66 834.996 C 1168.01 816.287 1177.67 793.796 1196.15 777.506 L 1198.95 778.457 C 1198.92 777.339 1198.89 777.897 1199.04 776.783 C 1198.82 778.893 1198.63 781.006 1198.47 783.121 C 1187.01 812.486 1166.09 853.999 1152.52 883.94 L 1124.52 944.892 C 1110.18 976.683 1097.2 1013.87 1062.64 1028.92 C 1036.09 1040.48 995.822 1036.97 974.374 1016.31 z" stroke-linecap="round" />
</g>
<g transform="matrix(0.94 0 0 0.94 694.27 35.18)"  >
<path style="stroke: none; stroke-width: 1; stroke-dasharray: none; stroke-linecap: butt; stroke-dashoffset: 0; stroke-linejoin: miter; stroke-miterlimit: 4; fill: rgb(111,235,105); fill-rule: nonzero; opacity: 1;"  transform=" translate(-803.78, -615.19)" d="M 729.679 695.653 C 723.327 683.271 720.978 655.309 722.792 641.636 C 732.969 564.944 805.953 523.391 878.052 531.305 L 879.016 532.888 C 881.131 532.912 883.244 532.978 885.356 533.088 L 883.637 533.723 C 881.682 537.621 877.396 547.511 874.391 549.813 C 867.12 555.381 860.205 567.748 854.444 573.113 C 831.525 594.46 815.322 621.954 792.13 643.194 C 779.466 654.792 769.876 667.385 758.151 679.741 C 749.219 688.903 743.372 688.205 733.774 699.878 L 732.856 700.03 C 731.878 698.662 730.717 696.926 729.679 695.653 z" stroke-linecap="round" />
</g>
<g transform="matrix(0.94 0 0 0.94 1080.56 827.19)"  >
<path style="stroke: none; stroke-width: 1; stroke-dasharray: none; stroke-linecap: butt; stroke-dashoffset: 0; stroke-linejoin: miter; stroke-miterlimit: 4; fill: rgb(11,12,76); fill-rule: nonzero; opacity: 1;"  transform=" translate(-1216.5, -1461.38)" d="M 1167.1 1391.95 C 1173.42 1391.35 1185.29 1391.6 1192.01 1391.54 L 1192.13 1447.5 C 1218.77 1391.85 1296.34 1448.16 1253.73 1516.14 C 1250.9 1519.61 1248.54 1522.17 1244.77 1524.71 C 1235.92 1530.66 1224.99 1532.65 1214.6 1530.2 C 1202.95 1527.38 1197.2 1521 1191.39 1511.41 L 1190.92 1529.96 L 1166.85 1529.99 C 1166.63 1483.98 1166.72 1437.96 1167.1 1391.95 z" stroke-linecap="round" />
</g>
<g transform="matrix(0.94 0 0 0.94 1080.51 842.8)"  >
<path style="stroke: none; stroke-width: 1; stroke-dasharray: none; stroke-linecap: butt; stroke-dashoffset: 0; stroke-linejoin: miter; stroke-miterlimit: 4; fill: rgb(0,255,255); fill-rule: nonzero; opacity: 1;"  transform=" translate(-1216.45, -1478.06)" d="M 1211.07 1448.03 C 1247.67 1447.46 1247.49 1494.31 1222.19 1507.9 C 1188.55 1511.55 1182.55 1464.73 1211.07 1448.03 z" stroke-linecap="round" />
</g>
<g transform="matrix(0.94 0 0 0.94 842.62 622.75)"  >
<path style="stroke: none; stroke-width: 1; stroke-dasharray: none; stroke-linecap: butt; stroke-dashoffset: 0; stroke-linejoin: miter; stroke-miterlimit: 4; fill: rgb(11,12,76); fill-rule: nonzero; opacity: 1;"  transform=" translate(-962.29, -1242.96)" d="M 913.279 1174.27 C 934.207 1173.8 984.628 1170.42 998.638 1185.1 C 1027.47 1215.32 1012.32 1263.94 967.206 1266 L 938 1266.03 C 938.067 1276.41 939.05 1301.23 936.345 1309.91 C 932.545 1313.38 918.124 1312.1 911.973 1312.02 C 912.024 1291.87 909.562 1186.03 913.279 1174.27 z" stroke-linecap="round" />
</g>
<g transform="matrix(0.94 0 0 0.94 841.47 601.87)"  >
<path style="stroke: none; stroke-width: 1; stroke-dasharray: none; stroke-linecap: butt; stroke-dashoffset: 0; stroke-linejoin: miter; stroke-miterlimit: 4; fill: rgb(0,255,255); fill-rule: nonzero; opacity: 1;"  transform=" translate(-961.05, -1220.65)" d="M 938.048 1196.9 C 949.256 1196.55 964.758 1195.02 974.603 1200.56 C 987.495 1207.81 986.1 1227.14 978.868 1238.04 C 968.257 1247.24 952.076 1244.57 937.781 1244.24 C 937.781 1228.46 937.869 1212.68 938.048 1196.9 z" stroke-linecap="round" />
</g>
<g transform="matrix(0.94 0 0 0.94 570.25 622.88)"  >
<path style="stroke: none; stroke-width: 1; stroke-dasharray: none; stroke-linecap: butt; stroke-dashoffset: 0; stroke-linejoin: miter; stroke-miterlimit: 4; fill: rgb(11,12,76); fill-rule: nonzero; opacity: 1;"  transform=" translate(-671.28, -1243.09)" d="M 615.171 1174.03 L 636.025 1174.08 C 643.13 1181.55 655.475 1200.34 661.579 1209.19 C 675.125 1228.99 688.827 1248.68 702.682 1268.27 C 701.679 1247.7 702.854 1226.3 702.403 1205.66 C 702.179 1195.41 702.303 1184.42 702.937 1174.23 C 710.299 1173.82 719.512 1174.04 727.014 1174.02 C 727.559 1208.52 726.943 1243.2 727.26 1277.71 C 727.351 1287.63 727.93 1302.6 725.601 1311.87 L 705.01 1312.2 C 683.494 1282.3 659.607 1247.35 639.199 1216.62 C 640.129 1232.52 639.766 1250.69 639.781 1266.73 C 639.794 1280.25 640.329 1298.75 638.571 1311.75 C 631.784 1312.21 622.159 1311.96 615.165 1311.98 L 615.171 1174.03 z" stroke-linecap="round" />
</g>
<g transform="matrix(0.94 0 0 0.94 567.63 826.69)"  >
<path style="stroke: none; stroke-width: 1; stroke-dasharray: none; stroke-linecap: butt; stroke-dashoffset: 0; stroke-linejoin: miter; stroke-miterlimit: 4; fill: rgb(11,12,76); fill-rule: nonzero; opacity: 1;"  transform=" translate(-668.49, -1460.85)" d="M 651.841 1392.08 C 658.91 1391.92 676.229 1390.77 681.737 1393.51 C 687.206 1401.31 697.291 1432.47 700.915 1442.74 C 711.329 1471.68 721.414 1500.74 731.168 1529.92 L 705.256 1529.96 C 701.166 1520.64 698.279 1507.08 692.763 1498.83 C 692.032 1497.74 690.094 1498.07 688.25 1497.97 L 642.793 1497.99 C 639.429 1508.76 636.205 1519.35 632.321 1529.96 C 623.542 1530.05 614.6 1529.92 605.806 1529.89 C 621.696 1484.37 635.93 1436.96 651.841 1392.08 z" stroke-linecap="round" />
</g>
<g transform="matrix(0.94 0 0 0.94 568.53 816.37)"  >
<path style="stroke: none; stroke-width: 1; stroke-dasharray: none; stroke-linecap: butt; stroke-dashoffset: 0; stroke-linejoin: miter; stroke-miterlimit: 4; fill: rgb(0,255,255); fill-rule: nonzero; opacity: 1;"  transform=" translate(-668.75, -1449.81)" d="M 668.438 1421.63 C 671.952 1424.55 685.243 1469.54 687.955 1477.92 L 668.733 1477.99 L 649.542 1477.94 C 654.527 1462.37 662.15 1436.06 668.438 1421.63 z" stroke-linecap="round" />
</g>
<g transform="matrix(0.94 0 0 0.94 1061.92 638.96)"  >
<path style="stroke: none; stroke-width: 1; stroke-dasharray: none; stroke-linecap: butt; stroke-dashoffset: 0; stroke-linejoin: miter; stroke-miterlimit: 4; fill: rgb(11,12,76); fill-rule: nonzero; opacity: 1;"  transform=" translate(-1196.59, -1260.27)" d="M 1193.2 1207.35 C 1204.39 1206.93 1216.29 1209.16 1225.62 1215.71 C 1256.41 1237.33 1253.4 1294.84 1217.4 1309.76 C 1212.88 1311.63 1207.58 1312.38 1202.72 1313.16 C 1196.29 1313.31 1190.61 1313.41 1184.18 1312.17 C 1145.8 1304.78 1136.07 1253.45 1157.88 1225.47 C 1167.54 1213.08 1178.23 1209.05 1193.2 1207.35 z" stroke-linecap="round" />
</g>
<g transform="matrix(0.94 0 0 0.94 1061.97 639.55)"  >
<path style="stroke: none; stroke-width: 1; stroke-dasharray: none; stroke-linecap: butt; stroke-dashoffset: 0; stroke-linejoin: miter; stroke-miterlimit: 4; fill: rgb(0,255,255); fill-rule: nonzero; opacity: 1;"  transform=" translate(-1196.64, -1260.91)" d="M 1190.8 1228.13 C 1225.73 1224.58 1231.23 1278.51 1201.4 1293.55 C 1170.56 1298.33 1160.47 1245.9 1190.8 1228.13 z" stroke-linecap="round" />
</g>
<g transform="matrix(0.94 0 0 0.94 690.69 638.93)"  >
<path style="stroke: none; stroke-width: 1; stroke-dasharray: none; stroke-linecap: butt; stroke-dashoffset: 0; stroke-linejoin: miter; stroke-miterlimit: 4; fill: rgb(11,12,76); fill-rule: nonzero; opacity: 1;"  transform=" translate(-799.95, -1260.23)" d="M 797.518 1207.37 C 855.018 1202.54 868.681 1288.42 820.526 1309.85 C 816.034 1311.85 810.023 1312.6 805.09 1313.25 C 798.895 1313.35 793.108 1313.34 786.976 1312.06 C 749.176 1304.18 739.715 1252.45 761.86 1225.02 C 771.904 1212.59 782.284 1208.91 797.518 1207.37 z" stroke-linecap="round" />
</g>
<g transform="matrix(0.94 0 0 0.94 690.8 639.47)"  >
<path style="stroke: none; stroke-width: 1; stroke-dasharray: none; stroke-linecap: butt; stroke-dashoffset: 0; stroke-linejoin: miter; stroke-miterlimit: 4; fill: rgb(0,255,255); fill-rule: nonzero; opacity: 1;"  transform=" translate(-800.07, -1260.81)" d="M 794.026 1228.17 C 829.624 1224.55 833.698 1278.72 805.373 1293.11 C 773.57 1299.45 764.616 1246 794.026 1228.17 z" stroke-linecap="round" />
</g>
<g transform="matrix(0.94 0 0 0.94 1236.77 638.98)"  >
<path style="stroke: none; stroke-width: 1; stroke-dasharray: none; stroke-linecap: butt; stroke-dashoffset: 0; stroke-linejoin: miter; stroke-miterlimit: 4; fill: rgb(11,12,76); fill-rule: nonzero; opacity: 1;"  transform=" translate(-1383.39, -1260.28)" d="M 1380.82 1207.38 C 1430.07 1205.44 1447.18 1262.22 1421.12 1297.05 C 1412.8 1308.18 1401.37 1311.62 1388.18 1313.22 C 1377.15 1313.4 1363.07 1312.29 1354.45 1305.05 C 1318.2 1274.58 1330.38 1212.81 1380.82 1207.38 z" stroke-linecap="round" />
</g>
<g transform="matrix(0.94 0 0 0.94 1236.89 637.04)"  >
<path style="stroke: none; stroke-width: 1; stroke-dasharray: none; stroke-linecap: butt; stroke-dashoffset: 0; stroke-linejoin: miter; stroke-miterlimit: 4; fill: rgb(0,255,255); fill-rule: nonzero; opacity: 1;"  transform=" translate(-1383.53, -1260.91)" d="M 1378.07 1228.15 C 1412.96 1224.78 1417.01 1279.66 1388.21 1293.43 C 1357.05 1298.95 1348.29 1244.78 1378.07 1228.15 z" stroke-linecap="round" />
</g>
<g transform="matrix(0.94 0 0 0.94 968.63 843.45)"  >
<path style="stroke: none; stroke-width: 1; stroke-dasharray: none; stroke-linecap: butt; stroke-dashoffset: 0; stroke-linejoin: miter; stroke-miterlimit: 4; fill: rgb(11,12,76); fill-rule: nonzero; opacity: 1;"  transform=" translate(-1096.92, -1478.74)" d="M 1086.33 1426.15 C 1087.06 1426.09 1087.78 1426.04 1088.5 1426.01 C 1141.44 1423.29 1144.9 1444.35 1143.16 1490.47 C 1142.69 1502.89 1143.06 1517.38 1143.01 1529.99 L 1118.97 1529.98 L 1118.92 1515.59 C 1101.1 1531.78 1079.44 1538.63 1058.78 1522.56 C 1049.81 1511.43 1046.68 1495.06 1055.94 1482.93 C 1067.45 1467.85 1089.25 1469.12 1106.04 1467.11 C 1113.58 1466.21 1119.34 1462.53 1116.22 1453.98 C 1114.94 1450.57 1112.26 1447.87 1108.87 1446.56 C 1100.85 1443.38 1092.54 1445.09 1084.85 1448.12 L 1078.75 1456.45 L 1055.21 1456.3 C 1057.56 1436.9 1068.32 1430.12 1086.33 1426.15 z" stroke-linecap="round" />
</g>
<g transform="matrix(0.94 0 0 0.94 968 861.73)"  >
<path style="stroke: none; stroke-width: 1; stroke-dasharray: none; stroke-linecap: butt; stroke-dashoffset: 0; stroke-linejoin: miter; stroke-miterlimit: 4; fill: rgb(0,255,255); fill-rule: nonzero; opacity: 1;"  transform=" translate(-1096.24, -1498.28)" d="M 1104.97 1484.42 C 1108.79 1484.08 1114.3 1484.13 1118.26 1484.03 C 1118.03 1505.39 1109.21 1510.95 1088.68 1512.52 C 1078.85 1510.94 1068.8 1504.08 1077.6 1493.59 C 1084.57 1485.28 1095 1485.16 1104.97 1484.42 z" stroke-linecap="round" />
</g>
<g transform="matrix(0.94 0 0 0.94 770.71 843.93)"  >
<path style="stroke: none; stroke-width: 1; stroke-dasharray: none; stroke-linecap: butt; stroke-dashoffset: 0; stroke-linejoin: miter; stroke-miterlimit: 4; fill: rgb(11,12,76); fill-rule: nonzero; opacity: 1;"  transform=" translate(-885.45, -1479.27)" d="M 876.247 1427.18 C 898.508 1425.52 925.963 1429.41 929.679 1455.03 C 932.846 1476.87 931.141 1507.39 930.984 1529.88 C 922.859 1530.14 914.421 1529.93 906.269 1529.85 C 906.324 1525.39 906.866 1520.31 907.224 1515.81 C 890.428 1532.76 867.958 1537.97 848.197 1522.42 C 824.6 1494.57 852.049 1467.02 883.318 1468.48 C 930.923 1470.72 890.329 1423 867.95 1456.19 C 863.246 1456.33 848.3 1457.81 845.942 1454.43 C 845.724 1437.69 862.45 1430.22 876.247 1427.18 z" stroke-linecap="round" />
</g>
<g transform="matrix(0.94 0 0 0.94 770.99 862.08)"  >
<path style="stroke: none; stroke-width: 1; stroke-dasharray: none; stroke-linecap: butt; stroke-dashoffset: 0; stroke-linejoin: miter; stroke-miterlimit: 4; fill: rgb(0,255,255); fill-rule: nonzero; opacity: 1;"  transform=" translate(-885.74, -1498.66)" d="M 896.698 1484.43 C 900.287 1484.12 901.163 1483.88 904.757 1484.73 C 906.17 1486.17 907.96 1487.84 907.601 1490.02 C 904.833 1506.83 889.453 1512.87 875.89 1513.17 C 866.381 1510.42 859.823 1502.18 866.648 1492.5 C 871.924 1485.02 887.929 1485.05 896.698 1484.43 z" stroke-linecap="round" />
</g>
<g transform="matrix(0.94 0 0 0.94 951.63 622.03)"  >
<path style="stroke: none; stroke-width: 1; stroke-dasharray: none; stroke-linecap: butt; stroke-dashoffset: 0; stroke-linejoin: miter; stroke-miterlimit: 4; fill: rgb(11,12,76); fill-rule: nonzero; opacity: 1;"  transform=" translate(-1078.74, -1242.19)" d="M 1032.98 1172.21 C 1041.22 1172.01 1049.09 1172.21 1057.32 1172.41 C 1057.66 1190.32 1057.7 1208.25 1057.41 1226.16 C 1067.03 1215.41 1080.63 1205.22 1095.58 1208.34 C 1126.37 1214.77 1126.82 1248.09 1126.17 1273.02 C 1125.85 1285.52 1127.12 1297.86 1124.72 1309.85 C 1120.78 1313.28 1106.24 1312.07 1100.08 1311.98 L 1100 1272.99 C 1099.98 1256.04 1101.73 1213.31 1065.62 1239.54 C 1053.78 1248.14 1057.17 1294.82 1056.98 1311.77 C 1048.95 1312.07 1040.09 1311.93 1031.99 1311.98 C 1031.63 1294.53 1029.89 1182.17 1032.98 1172.21 z" stroke-linecap="round" />
</g>
<g transform="matrix(0.94 0 0 0.94 1234.51 843.19)"  >
<path style="stroke: none; stroke-width: 1; stroke-dasharray: none; stroke-linecap: butt; stroke-dashoffset: 0; stroke-linejoin: miter; stroke-miterlimit: 4; fill: rgb(11,12,76); fill-rule: nonzero; opacity: 1;"  transform=" translate(-1381, -1478.47)" d="M 1381.12 1425.4 C 1420.5 1426.8 1428.19 1452.34 1428 1485.84 C 1405.37 1486.47 1380.26 1485.97 1357.44 1485.98 C 1359.52 1494.57 1360.87 1500.62 1367.54 1506.85 C 1372.05 1511.09 1378.15 1513.23 1384.33 1512.73 C 1394.25 1512 1400.34 1506.31 1406.52 1499.47 C 1411.89 1499.21 1417.83 1499.25 1423.25 1499.19 C 1427.05 1499.84 1425.36 1499.11 1428.43 1501.65 C 1429.02 1506.22 1427.2 1508.32 1424.62 1512.06 C 1409.1 1534.58 1371.1 1537.39 1350.76 1521.46 C 1328.41 1503.96 1328.42 1460.62 1346.65 1440.27 C 1356.44 1429.35 1367.18 1426.41 1381.12 1425.4 z" stroke-linecap="round" />
</g>
<g transform="matrix(0.94 0 0 0.94 1235.77 823.49)"  >
<path style="stroke: none; stroke-width: 1; stroke-dasharray: none; stroke-linecap: butt; stroke-dashoffset: 0; stroke-linejoin: miter; stroke-miterlimit: 4; fill: rgb(0,255,255); fill-rule: nonzero; opacity: 1;"  transform=" translate(-1382.33, -1457.42)" d="M 1374.92 1446.2 C 1394.85 1444.14 1400.64 1450.3 1406.28 1468.45 C 1401.53 1468.77 1396.41 1468.85 1391.62 1469.02 C 1380.54 1469.04 1369.46 1468.97 1358.38 1468.82 L 1358.75 1467.54 C 1362.15 1456 1364.48 1451.87 1374.92 1446.2 z" stroke-linecap="round" />
</g>
<g transform="matrix(0.94 0 0 0.94 673.77 842.66)"  >
<path style="stroke: none; stroke-width: 1; stroke-dasharray: none; stroke-linecap: butt; stroke-dashoffset: 0; stroke-linejoin: miter; stroke-miterlimit: 4; fill: rgb(11,12,76); fill-rule: nonzero; opacity: 1;"  transform=" translate(-781.87, -1477.91)" d="M 730.789 1426.08 C 737.948 1425.67 747.89 1425.98 755.25 1426 C 762.024 1442.68 776.741 1484.42 781.101 1501.72 C 790.132 1477.78 796.933 1450.6 805.671 1426.09 C 815.24 1426.04 823.48 1425.92 833.053 1426.77 C 831.44 1433.17 827.696 1442.78 825.391 1449.24 C 817.489 1470.2 803.399 1510.9 794.189 1529.95 L 767.442 1529.96 C 766.258 1527.36 760.268 1511.72 759.711 1509.42 C 756.806 1497.43 728.896 1433.54 730.789 1426.08 z" stroke-linecap="round" />
</g>
<g transform="matrix(0.94 0 0 0.94 1147.81 626.56)"  >
<path style="stroke: none; stroke-width: 1; stroke-dasharray: none; stroke-linecap: butt; stroke-dashoffset: 0; stroke-linejoin: miter; stroke-miterlimit: 4; fill: rgb(11,12,76); fill-rule: nonzero; opacity: 1;"  transform=" translate(-1288.34, -1247.02)" d="M 1276.81 1182.04 L 1298.89 1182.05 C 1299.7 1189.62 1299.65 1200.16 1299.83 1207.97 L 1318.72 1207.95 C 1318.78 1214.22 1318.53 1220.56 1318.36 1226.83 L 1300.09 1226.88 C 1299.65 1236.57 1297.86 1277.98 1301.66 1287.66 C 1303.06 1291.23 1312.42 1291.74 1316.89 1292.23 L 1316.93 1311.83 C 1268.9 1313.83 1273.19 1298.99 1273.98 1257.43 C 1274.16 1247.7 1274.03 1236.67 1274.03 1226.89 C 1269.44 1226.97 1264.59 1227.35 1260.16 1226.36 C 1256.92 1221.68 1257.55 1214.01 1260.1 1209.12 C 1263.44 1207.32 1270.17 1207.8 1274.29 1207.76 C 1275.83 1199.92 1276.29 1190.05 1276.81 1182.04 z" stroke-linecap="round" />
</g>
<g transform="matrix(0.94 0 0 0.94 894.23 826.84)"  >
<path style="stroke: none; stroke-width: 1; stroke-dasharray: none; stroke-linecap: butt; stroke-dashoffset: 0; stroke-linejoin: miter; stroke-miterlimit: 4; fill: rgb(11,12,76); fill-rule: nonzero; opacity: 1;"  transform=" translate(-1017.42, -1461.01)" d="M 1006.54 1392.04 L 1030.55 1392 L 1030.5 1529.99 L 1004.76 1530.02 C 1004.7 1526.84 1004.45 1512.35 1004.7 1509.93 C 1006.19 1495.24 1001.87 1398.99 1006.54 1392.04 z" stroke-linecap="round" />
</g>
<g transform="matrix(0.94 0 0 0.94 1158.9 826.88)"  >
<path style="stroke: none; stroke-width: 1; stroke-dasharray: none; stroke-linecap: butt; stroke-dashoffset: 0; stroke-linejoin: miter; stroke-miterlimit: 4; fill: rgb(11,12,76); fill-rule: nonzero; opacity: 1;"  transform=" translate(-1300.2, -1461.05)" d="M 1287.91 1391.97 L 1312.78 1391.96 L 1312.6 1529.75 C 1308.27 1530.42 1292.86 1530.04 1287.71 1530.02 C 1287.81 1484.11 1287.34 1437.84 1287.91 1391.97 z" stroke-linecap="round" />
</g>
<g transform="matrix(0.94 0 0 0.94 846.93 843.01)"  >
<path style="stroke: none; stroke-width: 1; stroke-dasharray: none; stroke-linecap: butt; stroke-dashoffset: 0; stroke-linejoin: miter; stroke-miterlimit: 4; fill: rgb(11,12,76); fill-rule: nonzero; opacity: 1;"  transform=" translate(-966.9, -1478.28)" d="M 954.286 1426.77 C 960.331 1426.24 973.229 1426.8 979.768 1426.89 C 980.107 1460.17 980.393 1496.84 979.58 1529.97 L 954.022 1530.02 C 953.984 1496.77 953.146 1459.72 954.286 1426.77 z" stroke-linecap="round" />
</g>
<g transform="matrix(0.94 0 0 0.94 846.73 773.51)"  >
<path style="stroke: none; stroke-width: 1; stroke-dasharray: none; stroke-linecap: butt; stroke-dashoffset: 0; stroke-linejoin: miter; stroke-miterlimit: 4; fill: rgb(11,12,76); fill-rule: nonzero; opacity: 1;"  transform=" translate(-966.66, -1404.03)" d="M 962.96 1392.08 C 982.772 1392.26 987.774 1410.22 969.571 1415.97 C 951.465 1416.35 945.388 1400.25 962.96 1392.08 z" stroke-linecap="round" />
</g>
</svg>